<svg xmlns="http://www.w3.org/2000/svg" xmlns:xlink="http://www.w3.org/1999/xlink" width="500" zoomAndPan="magnify" viewBox="0 0 375 149.999998" height="200" preserveAspectRatio="xMidYMid meet" version="1.0"><defs><g/><clipPath id="6cf54d296f"><path d="M 128.808594 24.996094 L 169.269531 24.996094 L 169.269531 82.746094 L 128.808594 82.746094 Z M 128.808594 24.996094 " clip-rule="nonzero"/></clipPath></defs><g clip-path="url(#6cf54d296f)"><path fill="#ff3131" d="M 154.324219 82.949219 C 157.125 80.222656 160.921875 74.769531 158.859375 69.503906 C 157.589844 66.257812 153.808594 65.753906 149.589844 62.917969 C 147.777344 61.699219 149.007812 59.246094 153.097656 58.300781 C 156.226562 57.578125 159.34375 56.800781 162.367188 55.714844 C 166.804688 54.121094 169.308594 51.433594 169.308594 48.046875 C 169.308594 44.75 167.226562 42.371094 163.199219 41.308594 C 160.359375 40.5625 158.34375 40.5625 150.859375 39.667969 C 146.71875 39.175781 141.386719 38.039062 139.445312 34.347656 C 137.046875 29.78125 141.730469 25.503906 145.070312 26.195312 C 142.164062 24.542969 135.332031 24.164062 131.5 27.890625 C 129.101562 30.222656 128.265625 33.644531 129.152344 36.871094 C 130.117188 40.390625 133.976562 43.679688 137.449219 44.796875 C 150.011719 48.84375 161.589844 43.574219 161.960938 48.519531 C 162.242188 52.222656 156.171875 51.964844 146.8125 53.972656 C 142.625 54.871094 138.15625 57.316406 139.613281 61.457031 C 142.175781 68.730469 162.4375 65.976562 154.324219 82.949219 " fill-opacity="1" fill-rule="nonzero"/></g><g fill="#791717" fill-opacity="1"><g transform="translate(58.939647, 111.183443)"><g><path d="M 4 -1.890625 L 3.953125 -21.640625 L 3.84375 -22.640625 L 3.796875 -23.796875 L 3.953125 -25.75 L 3.84375 -26.796875 L 3.953125 -27.796875 L 3.953125 -35.171875 L 4.421875 -36.328125 L 5.53125 -36.75 L 6.53125 -36.90625 L 8.640625 -36.703125 L 9.6875 -36.90625 L 11.75 -36.90625 L 12.796875 -36.28125 L 13.328125 -35.125 L 13.265625 -34.125 L 13.421875 -31.125 L 13.328125 -29.015625 L 13.421875 -27.75 L 13.375 -9.90625 L 13.796875 -8.84375 L 14.84375 -8.421875 L 15.953125 -8.53125 L 18.015625 -8.421875 L 18.953125 -8.578125 L 20.015625 -8.375 L 22.171875 -8.421875 L 23.28125 -8.265625 L 24.28125 -8.484375 L 25.375 -8.578125 L 26.328125 -7.953125 L 26.796875 -6.375 L 26.859375 -2.109375 L 26.28125 -0.46875 L 25.28125 0.046875 L 14.84375 0 L 13.6875 0.109375 L 12.6875 -0.046875 L 10.6875 0.046875 L 8.640625 -0.046875 L 6.421875 0.109375 L 5.375 0 L 4.375 -0.53125 Z M 4 -1.890625 "/></g></g></g><g fill="#791717" fill-opacity="1"><g transform="translate(87.267947, 111.183443)"><g><path d="M 21.109375 0.6875 L 17.953125 0.53125 L 13.484375 -0.796875 L 12.484375 -1.21875 L 8.90625 -3.109375 L 8.21875 -3.890625 L 6.734375 -5.3125 L 4.265625 -8.6875 L 3.734375 -9.640625 L 3.421875 -10.734375 L 2.625 -12.53125 L 2.046875 -15.84375 L 2.265625 -21.953125 L 2.6875 -24.21875 L 3.6875 -27.125 L 4.15625 -28.015625 L 5.953125 -30.640625 L 7.375 -32.21875 L 9.0625 -33.390625 L 9.796875 -34.015625 L 12.484375 -35.703125 L 14.484375 -36.234375 L 15.421875 -36.65625 L 16.484375 -36.96875 L 17.53125 -37.171875 L 21.21875 -37.390625 L 23.6875 -37.328125 L 30.59375 -35.171875 L 33.28125 -33.484375 L 35.546875 -31.4375 L 36.234375 -30.484375 L 36.859375 -29.859375 L 37.546875 -28.953125 L 37.90625 -28.015625 L 38.859375 -26.28125 L 39.125 -25.0625 L 39.546875 -23.953125 L 39.96875 -22.015625 L 40.234375 -18.375 L 39.96875 -14.6875 L 39.75 -13.53125 L 39.4375 -12.6875 L 39.28125 -11.640625 L 38.90625 -10.640625 L 36.859375 -7 L 36.171875 -6.0625 L 32.484375 -2.53125 L 27.796875 -0.421875 L 25.796875 0.203125 Z M 19.640625 -8.578125 L 22.6875 -8.6875 L 23.6875 -8.953125 L 24.640625 -9.0625 L 25.484375 -9.53125 L 26.4375 -9.953125 L 28.0625 -11.21875 L 28.703125 -12.15625 L 29.171875 -12.953125 L 29.75 -13.75 L 30.21875 -15.90625 L 30.546875 -18.53125 L 30.328125 -20.796875 L 29.96875 -21.75 L 29.640625 -22.796875 L 29.21875 -23.75 L 28.015625 -25.53125 L 26.375 -26.75 L 23.59375 -27.953125 L 21.0625 -28.125 L 18.640625 -27.90625 L 17.53125 -27.640625 L 16.59375 -27.171875 L 15.0625 -26.125 L 14.265625 -25.4375 L 13.578125 -24.59375 L 13.109375 -23.6875 L 12.484375 -22.953125 L 12.15625 -22.015625 L 11.796875 -20.0625 L 11.75 -18.484375 L 12 -15.84375 L 13 -12.90625 L 13.6875 -12.15625 L 14.21875 -11.421875 L 15.84375 -10 L 17.640625 -9.0625 L 18.59375 -8.953125 Z M 19.640625 -8.578125 "/></g></g></g><g fill="#791717" fill-opacity="1"><g transform="translate(129.497121, 111.183443)"><g><path d="M 18.109375 0.6875 L 16.421875 0.578125 L 15.375 0.578125 L 13.328125 0.15625 L 11.328125 -0.734375 L 10.53125 -1.21875 L 9.484375 -1.6875 L 7.796875 -2.796875 L 7 -3.46875 L 6.375 -4.21875 L 5.15625 -6.109375 L 4.3125 -7.890625 L 3.796875 -10.0625 L 3.46875 -14.265625 L 3.640625 -22.75 L 3.53125 -23.75 L 3.6875 -24.796875 L 3.53125 -32.171875 L 3.640625 -33.015625 L 3.640625 -34.28125 L 3.53125 -35.328125 L 4.21875 -36.328125 L 5.3125 -36.75 L 6.421875 -36.90625 L 8.6875 -36.703125 L 9.734375 -36.859375 L 10.734375 -36.859375 L 11.84375 -36.390625 L 12.484375 -35.234375 L 12.578125 -33.703125 L 12.484375 -32.015625 L 12.578125 -31.21875 L 12.421875 -14.265625 L 12.75 -11.21875 L 13.0625 -10.21875 L 13.6875 -9.375 L 14.53125 -8.734375 L 15.421875 -8.21875 L 16.640625 -7.953125 L 19.796875 -7.953125 L 21.640625 -8.640625 L 22.53125 -9.265625 L 23.109375 -10.328125 L 23.4375 -11.109375 L 23.796875 -14.375 L 23.6875 -35.125 L 24.28125 -36.28125 L 25.375 -36.8125 L 27.59375 -36.65625 L 30.90625 -36.75 L 32.0625 -36.390625 L 32.75 -35.28125 L 32.59375 -34.21875 L 32.59375 -29.859375 L 32.703125 -29.015625 L 32.59375 -27.859375 L 32.703125 -26.859375 L 32.703125 -12.640625 L 32.4375 -10.109375 L 31.96875 -7.890625 L 31.4375 -7 L 31.125 -5.953125 L 29.90625 -4.109375 L 28.4375 -2.625 L 26.703125 -1.46875 L 24.796875 -0.46875 L 20.6875 0.578125 L 19.6875 0.53125 Z M 18.109375 0.6875 "/></g></g></g><g fill="#791717" fill-opacity="1"><g transform="translate(165.828954, 111.183443)"><g><path d="M 5.46875 0.15625 L 4.421875 -0.53125 L 3.84375 -1.625 L 3.890625 -13.265625 L 3.796875 -14.265625 L 3.953125 -19.59375 L 3.84375 -20.640625 L 3.890625 -29.0625 L 3.796875 -30.015625 L 3.953125 -32.0625 L 3.796875 -35.28125 L 4.375 -36.390625 L 5.53125 -36.90625 L 7 -36.484375 L 8.21875 -35.59375 L 9.578125 -34.171875 L 10.421875 -33.4375 L 11.796875 -31.796875 L 12.53125 -31.171875 L 17.328125 -25.859375 L 18.484375 -24.796875 L 19.4375 -23.59375 L 20.171875 -22.859375 L 20.796875 -21.953125 L 21.90625 -21.53125 L 22.859375 -22.171875 L 26.0625 -25.4375 L 26.75 -26.328125 L 31.390625 -31.0625 L 32.125 -32.015625 L 32.75 -32.59375 L 33.4375 -33.4375 L 35.640625 -35.75 L 36.75 -36.4375 L 38.28125 -36.90625 L 39.390625 -36.328125 L 40.015625 -35.234375 L 39.90625 -34.21875 L 39.96875 -32.0625 L 39.90625 -31.171875 L 40.015625 -28.90625 L 39.96875 -27.90625 L 40.015625 -22.6875 L 39.90625 -21.53125 L 40.015625 -5.734375 L 39.90625 -4.6875 L 40.078125 -1.953125 L 39.4375 -0.421875 L 38.328125 0.15625 L 31.96875 -0.046875 L 30.859375 -0.375 L 30.4375 -1.578125 L 30.4375 -2.375 L 30.328125 -4.734375 L 30.4375 -5.6875 L 30.328125 -7.640625 L 30.4375 -9.6875 L 30.28125 -11.796875 L 30.375 -14.6875 L 29.96875 -15.484375 L 29.28125 -15.171875 L 27.125 -12.953125 L 26.375 -12.421875 L 24.90625 -10.6875 L 24.28125 -10.0625 L 23.53125 -9.265625 L 22.484375 -8.484375 L 21.328125 -8.53125 L 20.21875 -9.3125 L 18.796875 -10.6875 L 18.109375 -11.53125 L 15.953125 -13.6875 L 15.328125 -14.484375 L 14.484375 -15.171875 L 13.953125 -15.375 L 13.484375 -14.90625 L 13.484375 -12.84375 L 13.578125 -11.6875 L 13.484375 -9.796875 L 13.53125 -8.6875 L 13.375 -7.0625 L 13.53125 -1.53125 L 12.90625 -0.578125 L 11.421875 0.046875 L 9.734375 -0.046875 L 8.578125 0.109375 L 6.53125 0 Z M 5.46875 0.15625 "/></g></g></g><g fill="#791717" fill-opacity="1"><g transform="translate(209.848395, 111.183443)"><g><path d="M 18.328125 0.15625 L 17.265625 0.046875 L 16.21875 0.15625 L 15 0.109375 L 14 -0.109375 L 11.84375 0.046875 L 10.90625 0 L 9.734375 0.109375 L 5.953125 0.046875 L 4.375 -0.625 L 3.953125 -2.046875 L 3.84375 -3.21875 L 4 -6.84375 L 3.84375 -7.890625 L 3.953125 -8.90625 L 4 -17.421875 L 3.84375 -18.375 L 3.890625 -22.6875 L 4 -23.6875 L 3.84375 -24.796875 L 3.953125 -29.96875 L 3.796875 -31.125 L 3.953125 -33.28125 L 3.84375 -35.28125 L 4.421875 -36.390625 L 5.53125 -36.8125 L 6.578125 -36.75 L 7.640625 -36.859375 L 8.578125 -36.75 L 9.578125 -36.96875 L 10.640625 -36.8125 L 14.953125 -36.90625 L 16 -36.8125 L 16.90625 -36.859375 L 17.953125 -36.75 L 19.109375 -36.859375 L 23.375 -36.90625 L 24.328125 -36.703125 L 25.4375 -36.703125 L 26.484375 -36.28125 L 26.953125 -35.28125 L 27.0625 -32.125 L 27.015625 -31.0625 L 27.0625 -30.015625 L 26.53125 -29.0625 L 25.4375 -28.4375 L 24.4375 -28.375 L 16.90625 -28.484375 L 15.90625 -28.28125 L 14.90625 -28.328125 L 13.75 -27.90625 L 13.265625 -26.90625 L 13.265625 -25.28125 L 13.6875 -23.640625 L 14.796875 -23.171875 L 17.84375 -23.28125 L 20.0625 -23.109375 L 21.171875 -23.21875 L 24.28125 -23.21875 L 25.484375 -22.53125 L 26.015625 -21.0625 L 25.859375 -16.328125 L 25.484375 -15.265625 L 24.4375 -14.84375 L 23.21875 -14.90625 L 22.171875 -14.796875 L 20.015625 -14.84375 L 18.015625 -14.75 L 16.328125 -14.90625 L 14.75 -14.84375 L 13.796875 -14.265625 L 13.328125 -13.15625 L 13.328125 -9.84375 L 13.75 -8.90625 L 14.84375 -8.375 L 16 -8.484375 L 17.015625 -8.3125 L 18.171875 -8.375 L 19.21875 -8.265625 L 20.953125 -8.484375 L 23.640625 -8.421875 L 24.640625 -8.265625 L 25.859375 -8.375 L 26.953125 -7.890625 L 27.546875 -6.84375 L 27.546875 -1.53125 L 26.953125 -0.421875 L 25.859375 0.046875 Z M 18.328125 0.15625 "/></g></g></g><g fill="#791717" fill-opacity="1"><g transform="translate(240.019608, 111.183443)"><g><path d="M 31.0625 -0.890625 L 30.28125 -1.578125 L 28.90625 -3.109375 L 20.75 -11.21875 L 19.84375 -11.796875 L 19.171875 -12.578125 L 15.421875 -16.171875 L 14.75 -17.0625 L 14.0625 -17.328125 L 13.6875 -16.421875 L 13.578125 -15.375 L 13.53125 -2.046875 L 13 -0.421875 L 11.953125 0.109375 L 10.84375 0.15625 L 8.796875 0 L 7.640625 0.109375 L 5.46875 0 L 4.375 -0.375 L 3.890625 -1.375 L 3.796875 -5.796875 L 3.890625 -6.796875 L 3.796875 -15.421875 L 3.953125 -16.328125 L 3.84375 -18.484375 L 3.890625 -19.375 L 3.890625 -35.328125 L 4.375 -36.328125 L 5.578125 -36.859375 L 7.15625 -36.484375 L 8.375 -35.859375 L 9.15625 -35.234375 L 19.53125 -24.75 L 21.015625 -23.59375 L 24.75 -19.84375 L 25.53125 -19.484375 L 25.859375 -20.375 L 25.953125 -29.796875 L 25.859375 -30.96875 L 26.015625 -33.171875 L 25.859375 -34.015625 L 25.90625 -35.125 L 26.484375 -36.234375 L 27.484375 -36.8125 L 34.015625 -36.859375 L 35.0625 -36.28125 L 35.59375 -35.234375 L 35.75 -27.90625 L 35.59375 -26.640625 L 35.59375 -21.4375 L 35.75 -20.53125 L 35.640625 -1.3125 L 35.125 -0.265625 L 33.96875 0.109375 L 32.484375 -0.046875 Z M 31.0625 -0.890625 "/></g></g></g><g fill="#791717" fill-opacity="1"><g transform="translate(279.72135, 111.183443)"><g><path d="M 18.109375 0.6875 L 16.421875 0.578125 L 15.375 0.578125 L 13.328125 0.15625 L 11.328125 -0.734375 L 10.53125 -1.21875 L 9.484375 -1.6875 L 7.796875 -2.796875 L 7 -3.46875 L 6.375 -4.21875 L 5.15625 -6.109375 L 4.3125 -7.890625 L 3.796875 -10.0625 L 3.46875 -14.265625 L 3.640625 -22.75 L 3.53125 -23.75 L 3.6875 -24.796875 L 3.53125 -32.171875 L 3.640625 -33.015625 L 3.640625 -34.28125 L 3.53125 -35.328125 L 4.21875 -36.328125 L 5.3125 -36.75 L 6.421875 -36.90625 L 8.6875 -36.703125 L 9.734375 -36.859375 L 10.734375 -36.859375 L 11.84375 -36.390625 L 12.484375 -35.234375 L 12.578125 -33.703125 L 12.484375 -32.015625 L 12.578125 -31.21875 L 12.421875 -14.265625 L 12.75 -11.21875 L 13.0625 -10.21875 L 13.6875 -9.375 L 14.53125 -8.734375 L 15.421875 -8.21875 L 16.640625 -7.953125 L 19.796875 -7.953125 L 21.640625 -8.640625 L 22.53125 -9.265625 L 23.109375 -10.328125 L 23.4375 -11.109375 L 23.796875 -14.375 L 23.6875 -35.125 L 24.28125 -36.28125 L 25.375 -36.8125 L 27.59375 -36.65625 L 30.90625 -36.75 L 32.0625 -36.390625 L 32.75 -35.28125 L 32.59375 -34.21875 L 32.59375 -29.859375 L 32.703125 -29.015625 L 32.59375 -27.859375 L 32.703125 -26.859375 L 32.703125 -12.640625 L 32.4375 -10.109375 L 31.96875 -7.890625 L 31.4375 -7 L 31.125 -5.953125 L 29.90625 -4.109375 L 28.4375 -2.625 L 26.703125 -1.46875 L 24.796875 -0.46875 L 20.6875 0.578125 L 19.6875 0.53125 Z M 18.109375 0.6875 "/></g></g></g><g fill="#ff3131" fill-opacity="1"><g transform="translate(145.475765, 131.205009)"><g><path d="M 3.34375 0 L 1.9375 0 L 1.9375 -12.84375 L 4.1875 -12.84375 L 8.078125 -1.96875 L 8.265625 -1.96875 L 12.15625 -12.84375 L 14.3125 -12.84375 L 14.3125 0 L 12.890625 0 L 12.890625 -10.484375 L 12.671875 -10.515625 L 8.875 0 L 7.359375 0 L 3.5625 -10.515625 L 3.34375 -10.484375 Z M 3.34375 0 "/></g></g></g><g fill="#ff3131" fill-opacity="1"><g transform="translate(167.144319, 131.205009)"><g><path d="M 11.5625 0 L 9.953125 0 L 8.765625 -3.53125 L 3.28125 -3.53125 L 2.09375 0 L 0.515625 0 L 5 -12.84375 L 7.078125 -12.84375 Z M 5.921875 -11.296875 L 3.703125 -4.796875 L 8.328125 -4.796875 L 6.140625 -11.296875 Z M 5.921875 -11.296875 "/></g></g></g><g fill="#ff3131" fill-opacity="1"><g transform="translate(184.620491, 131.205009)"><g><path d="M 1.9375 0 L 1.9375 -12.84375 L 3.453125 -12.84375 L 3.453125 -7.234375 L 3.734375 -7.234375 L 9 -12.84375 L 10.65625 -12.84375 L 10.65625 -12.625 L 5.09375 -6.625 L 11.09375 -0.21875 L 11.09375 0 L 9.359375 0 L 3.734375 -5.921875 L 3.453125 -5.921875 L 3.453125 0 Z M 1.9375 0 "/></g></g></g><g fill="#ff3131" fill-opacity="1"><g transform="translate(201.358384, 131.205009)"><g><path d="M 3.453125 -6.0625 L 3.453125 -1.25 L 10 -1.25 L 10 0 L 1.9375 0 L 1.9375 -12.84375 L 9.859375 -12.84375 L 9.859375 -11.609375 L 3.453125 -11.609375 L 3.453125 -7.296875 L 9.109375 -7.296875 L 9.109375 -6.0625 Z M 3.453125 -6.0625 "/></g></g></g><g fill="#ff3131" fill-opacity="1"><g transform="translate(217.612872, 131.205009)"><g><path d="M 1.9375 0 L 1.9375 -12.84375 L 6.609375 -12.84375 C 7.472656 -12.84375 8.195312 -12.703125 8.78125 -12.421875 C 9.363281 -12.140625 9.800781 -11.738281 10.09375 -11.21875 C 10.382812 -10.695312 10.53125 -10.082031 10.53125 -9.375 C 10.53125 -8.582031 10.332031 -7.925781 9.9375 -7.40625 C 9.539062 -6.882812 8.921875 -6.492188 8.078125 -6.234375 L 8.078125 -6.0625 C 8.492188 -5.894531 8.832031 -5.632812 9.09375 -5.28125 C 9.363281 -4.925781 9.609375 -4.398438 9.828125 -3.703125 L 11.015625 0 L 9.453125 0 L 8.171875 -3.921875 C 8.023438 -4.390625 7.847656 -4.753906 7.640625 -5.015625 C 7.441406 -5.285156 7.191406 -5.476562 6.890625 -5.59375 C 6.585938 -5.707031 6.203125 -5.765625 5.734375 -5.765625 L 3.453125 -5.765625 L 3.453125 0 Z M 6.578125 -7.046875 C 7.378906 -7.046875 7.972656 -7.234375 8.359375 -7.609375 C 8.753906 -7.984375 8.953125 -8.550781 8.953125 -9.3125 C 8.953125 -10.070312 8.753906 -10.632812 8.359375 -11 C 7.972656 -11.375 7.378906 -11.5625 6.578125 -11.5625 L 3.453125 -11.5625 L 3.453125 -7.046875 Z M 6.578125 -7.046875 "/></g></g></g></svg>